# xmcd
#
# Track frame offsets:
#	150
#	12452
#	20168
#	31023
#	40464
#	57590
#
# Disc length: 925 seconds
#
# Revision: 0
# Processed by: cddbd v1.5.1PL0 Copyright (c) Steve Scherf et al.
# Submitted via: dBpowerAMP V4.0
#
DISCID=4c039b06
DTITLE=Railbenders - Christmas Six Pack
DYEAR=2004
DGENRE=Country
TTITLE0=Christmas for Cowboys
TTITLE1=Here Comes Santaclaus
TTITLE2=Santaclause is Back in Town
TTITLE3=Winter Wonderland
TTITLE4=Won't Let Go
TTITLE5=Drinkin' Buddies
EXTD=rare local 2004 christmas CD
EXTT0=
EXTT1=
EXTT2=
EXTT3=
EXTT4=
EXTT5=
PLAYORDER=
